<svg width="21" height="21" viewBox="0 0 21 21" fill="none" xmlns="http://www.w3.org/2000/svg">
<g id="ic-search">
<path id="shape" fill-rule="evenodd" clip-rule="evenodd" d="M15.0985 15.5004C13.778 16.6246 12.0663 17.303 10.1962 17.303C6.01723 17.303 2.62952 13.9153 2.62952 9.73634C2.62952 5.55739 6.01723 2.16968 10.1962 2.16968C14.3751 2.16968 17.7628 5.55739 17.7628 9.73634C17.7628 11.5952 17.0926 13.2974 15.9806 14.6147L19.6126 18.2467L18.7287 19.1306L15.0985 15.5004ZM16.5128 9.73634C16.5128 13.2249 13.6848 16.053 10.1962 16.053C6.70758 16.053 3.87952 13.2249 3.87952 9.73634C3.87952 6.24775 6.70758 3.41968 10.1962 3.41968C13.6848 3.41968 16.5128 6.24775 16.5128 9.73634Z" fill="black" fill-opacity="0.7"/>
</g>
</svg>
